<svg width="800" height="800" viewBox="0 0 800 800" fill="none" xmlns="http://www.w3.org/2000/svg">
<path fill-rule="evenodd" clip-rule="evenodd" d="M133.333 400C133.333 252.724 252.724 133.333 400 133.333C418.41 133.333 433.333 118.409 433.333 99.9998C433.333 81.5905 418.41 66.6665 400 66.6665C215.905 66.6665 66.6665 215.905 66.6665 400C66.6665 584.093 215.905 733.333 400 733.333C492.036 733.333 575.416 695.986 635.703 635.703C648.72 622.683 648.72 601.58 635.703 588.563C622.683 575.543 601.58 575.543 588.563 588.563C540.266 636.856 473.646 666.666 400 666.666C252.724 666.666 133.333 547.276 133.333 400ZM433.333 200C433.333 181.59 418.41 166.667 400 166.667C381.59 166.667 366.666 181.59 366.666 200V400C366.666 408.84 370.18 417.32 376.43 423.57L476.43 523.57C489.446 536.586 510.553 536.586 523.57 523.57C536.586 510.553 536.586 489.446 523.57 476.43L433.333 386.193V200ZM724.943 505.58C717.833 527.466 694.327 539.443 672.44 532.333C650.557 525.22 638.58 501.713 645.69 479.83C652.8 457.943 676.307 445.967 698.193 453.077C720.077 460.19 732.056 483.693 724.943 505.58ZM702.823 394.223C725.553 390.623 741.06 369.28 737.46 346.553C733.86 323.823 712.517 308.316 689.79 311.916C667.06 315.516 651.553 336.86 655.153 359.59C658.753 382.316 680.096 397.823 702.823 394.223ZM676.413 199.174C689.94 217.791 685.813 243.848 667.196 257.374C648.58 270.9 622.523 266.773 608.996 248.156C595.47 229.539 599.596 203.482 618.213 189.956C636.83 176.43 662.89 180.557 676.413 199.174ZM573.323 151.614C583.77 131.111 575.616 106.02 555.113 95.5728C534.61 85.1258 509.52 93.2782 499.073 113.782C488.627 134.286 496.776 159.376 517.283 169.823C537.786 180.27 562.876 172.118 573.323 151.614Z" fill="white"/>
</svg>
